<svg width="71" height="18" viewBox="0 0 71 18" fill="none" xmlns="http://www.w3.org/2000/svg">
<path d="M16.2969 14.5947C17.2371 14.5947 17.9998 15.3567 18 16.2969C18 17.2373 17.2373 18 16.2969 18C15.3567 17.9998 14.5947 17.2371 14.5947 16.2969C14.595 15.3568 15.3568 14.595 16.2969 14.5947ZM1.70312 15.0811C2.37449 15.0813 2.91872 15.6255 2.91895 16.2969C2.91895 16.9684 2.37463 17.5134 1.70312 17.5137C1.03143 17.5137 0.486328 16.9686 0.486328 16.2969C0.486556 15.6254 1.03157 15.0811 1.70312 15.0811ZM11.4326 15.0811C12.1041 15.0812 12.6482 15.6254 12.6484 16.2969C12.6484 16.9685 12.1042 17.5136 11.4326 17.5137C10.7609 17.5137 10.2158 16.9686 10.2158 16.2969C10.216 15.6254 10.7611 15.0811 11.4326 15.0811ZM6.56738 15.5674C6.97026 15.5674 7.29665 15.8941 7.29688 16.2969C7.29688 16.6999 6.9704 17.0273 6.56738 17.0273C6.16445 17.0272 5.83789 16.6998 5.83789 16.2969C5.83812 15.8941 6.16459 15.5675 6.56738 15.5674ZM11.4326 9.72949C12.3729 9.72959 13.1348 10.4923 13.1348 11.4326C13.1347 12.3728 12.3728 13.1347 11.4326 13.1348C10.4923 13.1348 9.72959 12.3729 9.72949 11.4326C9.72949 10.4922 10.4922 9.72949 11.4326 9.72949ZM6.56738 10.2158C7.23908 10.2158 7.78418 10.7609 7.78418 11.4326C7.78408 12.1042 7.23902 12.6484 6.56738 12.6484C5.89583 12.6483 5.35166 12.1042 5.35156 11.4326C5.35156 10.761 5.89577 10.2159 6.56738 10.2158ZM16.2969 10.2158C16.9686 10.2158 17.5137 10.7609 17.5137 11.4326C17.5136 12.1042 16.9685 12.6484 16.2969 12.6484C15.6254 12.6482 15.0812 12.1041 15.0811 11.4326C15.0811 10.7611 15.6254 10.216 16.2969 10.2158ZM1.70312 10.7031C2.10595 10.7034 2.43262 11.0297 2.43262 11.4326C2.43252 11.8354 2.10589 12.1619 1.70312 12.1621C1.30017 12.1621 0.972756 11.8356 0.972656 11.4326C0.972656 11.0296 1.30011 10.7031 1.70312 10.7031ZM6.56738 4.86523C7.5077 4.86523 8.27041 5.62709 8.27051 6.56738C8.27051 7.50776 7.50776 8.27051 6.56738 8.27051C5.62709 8.27041 4.86523 7.5077 4.86523 6.56738C4.86533 5.62715 5.62715 4.86533 6.56738 4.86523ZM1.70312 5.35156C2.37457 5.35179 2.91885 5.89591 2.91895 6.56738C2.91895 7.23894 2.37463 7.78395 1.70312 7.78418C1.03143 7.78418 0.486328 7.23908 0.486328 6.56738C0.486428 5.89577 1.03149 5.35156 1.70312 5.35156ZM11.4326 5.35156C12.1042 5.35166 12.6483 5.89583 12.6484 6.56738C12.6484 7.23902 12.1042 7.78408 11.4326 7.78418C10.7609 7.78418 10.2158 7.23908 10.2158 6.56738C10.2159 5.89577 10.761 5.35156 11.4326 5.35156ZM16.2969 5.83789C16.6998 5.83789 17.0272 6.16445 17.0273 6.56738C17.0273 6.9704 16.6999 7.29688 16.2969 7.29688C15.8941 7.29665 15.5674 6.97026 15.5674 6.56738C15.5675 6.16459 15.8941 5.83812 16.2969 5.83789ZM1.70312 0C2.64331 0.000228154 3.40527 0.762889 3.40527 1.70312C3.40505 2.64317 2.64317 3.40505 1.70312 3.40527C0.762889 3.40527 0.000228154 2.64331 0 1.70312C0 0.762748 0.762748 0 1.70312 0ZM6.56738 0.486328C7.23908 0.486328 7.78418 1.03143 7.78418 1.70312C7.78395 2.37463 7.23894 2.91895 6.56738 2.91895C5.89591 2.91885 5.35179 2.37457 5.35156 1.70312C5.35156 1.03149 5.89577 0.486428 6.56738 0.486328ZM16.2969 0.486328C16.9686 0.486328 17.5137 1.03143 17.5137 1.70312C17.5134 2.37463 16.9684 2.91895 16.2969 2.91895C15.6255 2.91872 15.0813 2.37449 15.0811 1.70312C15.0811 1.03157 15.6254 0.486556 16.2969 0.486328ZM11.4326 0.972656C11.8356 0.972756 12.1621 1.30017 12.1621 1.70312C12.1619 2.10589 11.8354 2.43252 11.4326 2.43262C11.0297 2.43262 10.7034 2.10595 10.7031 1.70312C10.7031 1.30011 11.0296 0.972656 11.4326 0.972656Z" fill="url(#paint0_radial_5028_52)"/>
<path d="M33.0327 4.27273V13H31.6264L27.5142 7.0554H27.4418V13H25.8608V4.27273H27.2756L31.3835 10.2216H31.4602V4.27273H33.0327ZM36.5707 13.1321C36.1559 13.1321 35.7823 13.0582 35.4499 12.9105C35.1204 12.7599 34.859 12.5384 34.6658 12.2457C34.4755 11.9531 34.3803 11.5923 34.3803 11.1634C34.3803 10.794 34.4485 10.4886 34.5849 10.2472C34.7212 10.0057 34.9073 9.8125 35.1431 9.66761C35.3789 9.52273 35.6445 9.41335 35.94 9.33949C36.2383 9.26278 36.5465 9.20739 36.8647 9.1733C37.2482 9.13352 37.5593 9.09801 37.7979 9.06676C38.0366 9.03267 38.2099 8.98153 38.3178 8.91335C38.4286 8.84233 38.484 8.73295 38.484 8.58523V8.55966C38.484 8.23864 38.3888 7.99006 38.1985 7.81392C38.0082 7.63778 37.734 7.54972 37.3761 7.54972C36.9982 7.54972 36.6985 7.6321 36.4769 7.79688C36.2582 7.96165 36.1104 8.15625 36.0337 8.38068L34.5934 8.17614C34.707 7.77841 34.8945 7.44602 35.1559 7.17898C35.4173 6.90909 35.7369 6.70739 36.1147 6.57386C36.4925 6.4375 36.9102 6.36932 37.3675 6.36932C37.6829 6.36932 37.9968 6.40625 38.3093 6.48011C38.6218 6.55398 38.9073 6.67614 39.1658 6.84659C39.4244 7.0142 39.6317 7.2429 39.788 7.53267C39.9471 7.82244 40.0266 8.18466 40.0266 8.61932V13H38.5437V12.1009H38.4925C38.3988 12.2827 38.2667 12.4531 38.0962 12.6122C37.9286 12.7685 37.717 12.8949 37.4613 12.9915C37.2085 13.0852 36.9116 13.1321 36.5707 13.1321ZM36.9712 11.9986C37.2809 11.9986 37.5494 11.9375 37.7766 11.8153C38.0039 11.6903 38.1786 11.5256 38.3008 11.321C38.4258 11.1165 38.4883 10.8935 38.4883 10.652V9.88068C38.44 9.92045 38.3576 9.95739 38.2411 9.99148C38.1275 10.0256 37.9996 10.0554 37.8576 10.081C37.7156 10.1065 37.5749 10.1293 37.4357 10.1491C37.2965 10.169 37.1758 10.1861 37.0735 10.2003C36.8434 10.2315 36.6374 10.2827 36.4556 10.3537C36.2738 10.4247 36.1303 10.5241 36.0252 10.652C35.9201 10.777 35.8675 10.9389 35.8675 11.1378C35.8675 11.4219 35.9712 11.6364 36.1786 11.7812C36.386 11.9261 36.6502 11.9986 36.9712 11.9986ZM47.19 6.45455L44.859 13H43.1545L40.8235 6.45455H42.4684L43.9727 11.3168H44.0408L45.5494 6.45455H47.19ZM53.4308 8.18466L52.0245 8.33807C51.9847 8.19602 51.9151 8.0625 51.8157 7.9375C51.7191 7.8125 51.5884 7.71165 51.4237 7.63494C51.2589 7.55824 51.0572 7.51989 50.8185 7.51989C50.4975 7.51989 50.2276 7.58949 50.0089 7.72869C49.793 7.8679 49.6864 8.0483 49.6893 8.26989C49.6864 8.46023 49.756 8.61506 49.8981 8.73438C50.043 8.85369 50.2816 8.9517 50.614 9.02841L51.7305 9.26705C52.3498 9.40057 52.81 9.61222 53.1112 9.90199C53.4151 10.1918 53.5685 10.571 53.5714 11.0398C53.5685 11.4517 53.4478 11.8153 53.2092 12.1307C52.9734 12.4432 52.6452 12.6875 52.2248 12.8636C51.8043 13.0398 51.3214 13.1278 50.7759 13.1278C49.9748 13.1278 49.3299 12.9602 48.8413 12.625C48.3526 12.2869 48.0614 11.8168 47.9677 11.2145L49.4719 11.0696C49.5401 11.3651 49.685 11.5881 49.9066 11.7386C50.1282 11.8892 50.4165 11.9645 50.7717 11.9645C51.1381 11.9645 51.4322 11.8892 51.6538 11.7386C51.8782 11.5881 51.9904 11.402 51.9904 11.1804C51.9904 10.9929 51.918 10.8381 51.7731 10.7159C51.631 10.5937 51.4094 10.5 51.1083 10.4347L49.9918 10.2003C49.364 10.0696 48.8995 9.84943 48.5984 9.53977C48.2972 9.22727 48.1481 8.83239 48.1509 8.35511C48.1481 7.9517 48.2575 7.60227 48.479 7.30682C48.7035 7.00852 49.0146 6.77841 49.4123 6.61648C49.8129 6.4517 50.2745 6.36932 50.7972 6.36932C51.5643 6.36932 52.168 6.53267 52.6083 6.85938C53.0515 7.18608 53.3256 7.62784 53.4308 8.18466ZM57.6985 13.1278C57.0593 13.1278 56.5053 12.9872 56.0366 12.706C55.5678 12.4247 55.2042 12.0312 54.9457 11.5256C54.69 11.0199 54.5621 10.429 54.5621 9.75284C54.5621 9.0767 54.69 8.48437 54.9457 7.97585C55.2042 7.46733 55.5678 7.07244 56.0366 6.79119C56.5053 6.50994 57.0593 6.36932 57.6985 6.36932C58.3377 6.36932 58.8917 6.50994 59.3604 6.79119C59.8292 7.07244 60.1914 7.46733 60.4471 7.97585C60.7056 8.48437 60.8349 9.0767 60.8349 9.75284C60.8349 10.429 60.7056 11.0199 60.4471 11.5256C60.1914 12.0312 59.8292 12.4247 59.3604 12.706C58.8917 12.9872 58.3377 13.1278 57.6985 13.1278ZM57.707 11.892C58.0536 11.892 58.3434 11.7969 58.5763 11.6065C58.8093 11.4134 58.9826 11.1548 59.0962 10.831C59.2127 10.5071 59.271 10.1463 59.271 9.74858C59.271 9.34801 59.2127 8.9858 59.0962 8.66193C58.9826 8.33523 58.8093 8.07528 58.5763 7.8821C58.3434 7.68892 58.0536 7.59233 57.707 7.59233C57.3519 7.59233 57.0565 7.68892 56.8207 7.8821C56.5877 8.07528 56.413 8.33523 56.2965 8.66193C56.1829 8.9858 56.1261 9.34801 56.1261 9.74858C56.1261 10.1463 56.1829 10.5071 56.2965 10.831C56.413 11.1548 56.5877 11.4134 56.8207 11.6065C57.0565 11.7969 57.3519 11.892 57.707 11.892ZM65.4595 6.45455V7.64773H61.5902V6.45455H65.4595ZM62.5575 13V5.83665C62.5575 5.39631 62.6484 5.02983 62.8303 4.73722C63.0149 4.4446 63.2621 4.22585 63.5717 4.08097C63.8814 3.93608 64.2251 3.86364 64.603 3.86364C64.87 3.86364 65.1072 3.88494 65.3146 3.92756C65.522 3.97017 65.6754 4.00852 65.7749 4.04261L65.468 5.2358C65.4027 5.21591 65.3203 5.19602 65.2209 5.17614C65.1214 5.15341 65.0107 5.14205 64.8885 5.14205C64.6016 5.14205 64.3984 5.21165 64.2791 5.35085C64.1626 5.48722 64.1044 5.68324 64.1044 5.93892V13H62.5575ZM69.9361 6.45455V7.64773H66.1733V6.45455H69.9361ZM67.1023 4.88636H68.6449V11.0312C68.6449 11.2386 68.6761 11.3977 68.7386 11.5085C68.804 11.6165 68.8892 11.6903 68.9943 11.7301C69.0994 11.7699 69.2159 11.7898 69.3438 11.7898C69.4403 11.7898 69.5284 11.7827 69.608 11.7685C69.6903 11.7543 69.7528 11.7415 69.7955 11.7301L70.0554 12.9361C69.973 12.9645 69.8551 12.9957 69.7017 13.0298C69.5511 13.0639 69.3665 13.0838 69.1477 13.0895C68.7614 13.1009 68.4134 13.0426 68.1037 12.9148C67.794 12.7841 67.5483 12.5824 67.3665 12.3097C67.1875 12.0369 67.0994 11.696 67.1023 11.2869V4.88636Z" fill="#384551"/>
<defs>
<radialGradient id="paint0_radial_5028_52" cx="0" cy="0" r="1" gradientUnits="userSpaceOnUse" gradientTransform="translate(9 9) rotate(90) scale(9)">
<stop stop-color="#696CFF"/>
<stop offset="1" stop-color="#8789FF"/>
</radialGradient>
</defs>
</svg>
